<?xml version="1.0" standalone="no"?><!DOCTYPE svg PUBLIC "-//W3C//DTD SVG 1.1//EN" "http://www.w3.org/Graphics/SVG/1.1/DTD/svg11.dtd"><svg t="1733844478998" class="icon" viewBox="0 0 1024 1024" version="1.1" xmlns="http://www.w3.org/2000/svg" p-id="41453" xmlns:xlink="http://www.w3.org/1999/xlink" width="200" height="200"><path d="M512 959.6C265.2 959.6 64.4 758.8 64.4 512S265.2 64.4 512 64.4 959.6 265.2 959.6 512 758.8 959.6 512 959.6z m0-847.8c-220.7 0-400.2 179.5-400.2 400.2S291.3 912.2 512 912.2 912.2 732.7 912.2 512 732.7 111.8 512 111.8z" fill="#5D5D5D" p-id="41454"></path><path d="M214.4 512.9c0-89.3 54.3-142.9 123.6-142.9 34.2 0 61 16.4 77.8 34.6l-23.4 27.5c-14.1-14.5-31.3-24.6-53.6-24.6-47.3 0-80 39.4-80 103.8 0 65.1 30.5 104.9 78.9 104.9 24.9 0 44.3-11.2 60.7-29l23.1 27.2c-22 25.3-49.9 39.4-85.2 39.4-69 0.2-121.9-51.2-121.9-140.9zM469.7 375.3h43.2v111.6h117.2V375.3h43.2v273.9h-43.2V524.5H512.9v124.7h-43.2V375.3zM809.6 612.3h-17.5v36.9H772v-36.9h-59.2V598l54.5-85.8h24.8v83.6h17.5v16.5zM772 595.7v-35.9c0-7.5 0.7-19 1.1-26.4h-0.7c-3.4 6.9-7.1 14-11 21l-27 41.3H772z" fill="#5D5D5D" p-id="41455"></path></svg>