<?xml version="1.0" standalone="no"?><!DOCTYPE svg PUBLIC "-//W3C//DTD SVG 1.1//EN" "http://www.w3.org/Graphics/SVG/1.1/DTD/svg11.dtd"><svg t="1733843964730" class="icon" viewBox="0 0 1024 1024" version="1.1" xmlns="http://www.w3.org/2000/svg" fill="#eeb173" p-id="20615" xmlns:xlink="http://www.w3.org/1999/xlink" width="200" height="200"><path d="M145.472 672.192c9.664 0 17.472 7.552 17.472 16.832v47.872c23.04 9.792 75.904 16.128 146.112 8.128 37.888-4.352 77.76-11.392 112.896-17.536 35.328-6.272 63.232-11.2 78.08-11.328 5.952 0 12.16-0.32 18.432-0.64 16-0.704 32.64-1.536 48.384 1.024 18.368 2.944 34.88 11.776 49.408 19.648 3.456 1.792 6.848 3.648 10.304 5.376 28.352 14.528 54.208 19.968 86.464 18.368a51.52 51.52 0 0 0 17.28-4.544c3.84-1.472 7.872-2.688 11.904-3.712 2.368-0.64 5.824-1.536 8.128-2.368v-60.288c0-4.48 1.856-8.768 5.12-11.904a17.792 17.792 0 0 1 12.352-4.928c9.664 0 17.536 7.552 17.536 16.832v178.24c0 51.2-43.136 92.672-96.256 92.736H224.256c-53.12-0.064-96.192-41.6-96.256-92.736v-178.24c0-9.28 7.808-16.832 17.472-16.832z m173.696-192.32l6.656 6.208 12.16 11.264a416 416 0 0 1 42.432 45.76c21.44 27.2 34.112 51.712 34.112 72.576-0.064 50.432-42.688 91.52-95.36 91.52-52.736 0-95.36-41.088-95.36-91.52 0-20.864 12.608-45.44 34.112-72.576a414.72 414.72 0 0 1 42.432-45.76l12.16-11.264 6.656-6.208z m570.112-351.424c22.016 54.4-11.776 117.504-74.816 141.12L332.8 450.304l-5.12 1.856-12.288 4.672 0.64-2.56h-1.728c-24.896-1.6-50.24-32.448-69.056-75.648l-3.2-7.68c-21.44-52.864-24.32-100.48 3.584-114.432l488.96-183.488c63.104-23.68 132.672 0.896 154.688 55.424zM260.928 287.936c-1.408 0.512 0.32 33.92 15.104 70.592 14.72 36.48 36.864 62.08 37.952 61.632 1.472-0.576-0.256-33.984-15.104-70.592-14.72-36.48-36.8-62.08-37.952-61.632z m235.456-88.32L295.872 274.752l1.088 1.152c11.52 12.992 22.528 30.912 31.616 51.008l4.352 10.24c9.792 24.192 15.808 48.64 16.512 68.48v1.216l37.76-14.144c16.64-18.816 35.328-43.776 53.376-72.192 31.68-49.92 52.672-96.512 55.808-120.96z" fill="#eeb173" p-id="20616"></path></svg>