<?xml version="1.0" standalone="no"?><!DOCTYPE svg PUBLIC "-//W3C//DTD SVG 1.1//EN" "http://www.w3.org/Graphics/SVG/1.1/DTD/svg11.dtd"><svg t="1733843375301" class="icon" viewBox="0 0 1024 1024" version="1.1" xmlns="http://www.w3.org/2000/svg" p-id="7983" xmlns:xlink="http://www.w3.org/1999/xlink" width="200" height="200"><path d="M290.8 212.2c12.7 0 24.3-5.1 32.9-13.2 1 1.5 2 3.5 3 5.1-7.6 8.6-12.2 19.8-12.2 31.9 0 26.4 21.3 47.7 47.7 47.7 11.1 0 21.3-4.1 29.4-10.1 9.6 20.3 29.9 34 53.7 34 33 0 59.8-26.9 59.8-59.8 0-6.1-1-11.7-2.5-16.7 2-1 4.1-2.5 6.1-3.5-2.5 6.6-3.5 13.7-3.5 20.8 0 32.9 26.9 59.8 59.8 59.8s59.8-26.9 59.8-59.8c0-33-26.9-59.3-59.3-59.3-14.2 0-27.4 5.1-37.5 13.2 1-4.1 2-8.6 2-13.2 0-26.4-21.3-47.6-47.6-47.6-9.6 0-18.3 2.5-25.9 7.6-7.6-31.4-35.5-55.3-69.4-55.3-26.9 0-50.2 14.7-62.4 37-8.6-8.1-20.3-13.2-33-13.2-26.4 0-47.6 21.3-47.6 47.7-0.4 25.6 20.9 46.9 46.7 46.9z m0 0M172.2 212.2c0 8.5 4.5 16.4 11.9 20.6 7.4 4.3 16.5 4.3 23.8 0 7.4-4.3 11.9-12.1 11.9-20.6 0-8.5-4.5-16.4-11.9-20.6-7.4-4.3-16.5-4.3-23.8 0-7.3 4.2-11.9 12.1-11.9 20.6z m0 0M802.9 831.7c-107.5-136.9-93.8-405.1-93.8-405.1 25.3-1 46.1-21.8 46.1-47.6 0-26.4-21.3-47.7-47.6-47.7H374.5c-26.4 0-47.6 21.3-47.6 47.7 0 25.9 20.3 46.6 46.1 47.6 0 0 14.2 268.2-93.8 405.1-26.4 0-47.7 21.3-47.7 47.6 0 26.4 21.3 47.7 47.7 47.7h523.7c26.4 0 47.6-21.3 47.6-47.7 0-26.3-21.3-47.6-47.6-47.6z m0 0" p-id="7984"></path></svg>