<?xml version="1.0" standalone="no"?><!DOCTYPE svg PUBLIC "-//W3C//DTD SVG 1.1//EN" "http://www.w3.org/Graphics/SVG/1.1/DTD/svg11.dtd"><svg t="1733844345442" class="icon" viewBox="0 0 1024 1024" version="1.1" xmlns="http://www.w3.org/2000/svg" p-id="37856" xmlns:xlink="http://www.w3.org/1999/xlink" fill="#2e8efd" width="200" height="200"><path d="M569.0368 517.4272a55.739733 55.739733 0 1 0-111.479467-0.034133 55.739733 55.739733 0 0 0 111.479467 0m202.410667 26.692266c-31.3344-18.090667-109.602133-42.0864-170.9056-45.2608a89.1904 89.1904 0 0 1-57.5488 102.673067c33.5872 51.0976 92.706133 106.018133 123.733333 123.972267a104.721067 104.721067 0 1 0 104.721067-181.384534m200.704-32.085333a457.386667 457.386667 0 0 0-55.364267-218.692267l-106.837333 61.6448a334.711467 334.711467 0 0 1 32.8704 220.842667 135.509333 135.509333 0 0 0-21.4016-32.221867 309.794133 309.794133 0 0 0-33.8944-175.650133l-118.033067 68.130133c6.485333 13.4144 11.1616 27.818667 14.097067 42.837334a564.906667 564.906667 0 0 0-27.921067-5.8368 151.517867 151.517867 0 0 0-8.669867-23.995734l-24.9856 14.404267a122.606933 122.606933 0 0 0-12.253866-20.002133c0.546133-1.2288 1.024-2.491733 1.536-3.754667l22.766933-13.141333a150.254933 150.254933 0 0 0-12.0832-14.916267c3.208533-9.250133 6.144-18.602667 8.8064-27.921067 9.659733 8.942933 18.432 18.909867 25.873067 29.7984l117.828266-68.027733a313.0368 313.0368 0 0 0-135.7824-117.316267 137.250133 137.250133 0 0 0-22.4256-36.522666 338.5344 338.5344 0 0 1 180.667734 140.868266l106.769066-61.610666C822.613333 139.5712 677.410133 51.848533 512 51.848533c-165.376 0-310.613333 87.722667-391.714133 219.067734l106.769066 61.610666a338.6368 338.6368 0 0 1 180.667734-140.834133 136.8064 136.8064 0 0 0-22.4256 36.488533 313.207467 313.207467 0 0 0-135.7824 117.316267l117.828266 68.027733c7.4752-10.888533 16.1792-20.821333 25.8048-29.764266 2.730667 9.3184 5.666133 18.670933 8.874667 27.886933a149.7088 149.7088 0 0 0-12.0832 14.916267l22.7328 13.1072 2.491733 6.007466a121.856 121.856 0 0 0-11.127466 18.944l-27.0336-15.5648c-4.061867 8.6016-7.168 17.7152-9.557334 27.101867-9.250133 1.774933-18.500267 3.822933-27.648 6.075733 2.8672-16.213333 7.748267-31.778133 14.711467-46.1824L236.475733 367.957333a309.1456 309.1456 0 0 0-33.109333 181.589334c-8.567467 10.3424-15.4624 21.7088-20.616533 33.860266a334.711467 334.711467 0 0 1 31.266133-228.420266L107.246933 293.307733A457.250133 457.250133 0 0 0 51.848533 512c0 249.378133 199.441067 452.949333 447.1808 459.844267v-123.221334a335.394133 335.394133 0 0 1-198.997333-75.093333c2.935467 0.2048 5.802667 0.6144 8.8064 0.6144 10.308267 0 20.514133-1.399467 30.5152-3.720533a309.3504 309.3504 0 0 0 159.675733 52.258133V686.421333a174.557867 174.557867 0 0 1-34.133333-6.007466c6.656-7.168 13.141333-14.472533 19.387733-21.947734 4.846933 0.9216 9.762133 1.604267 14.7456 2.048v-20.753066l1.092267-1.365334c4.369067 0.443733 8.738133 0.682667 13.141333 0.682667 3.925333 0 7.816533-0.375467 11.707734-0.750933v22.186666c6.656-0.580267 13.141333-1.7408 19.524266-3.1744 6.144 7.3728 12.629333 14.5408 19.1488 21.6064-12.3904 3.822933-25.2928 6.485333-38.673066 7.509334v136.260266a309.316267 309.316267 0 0 0 163.089066-54.545066 136.533333 136.533333 0 0 0 30.9248 3.754666c2.56 0 5.051733-0.341333 7.5776-0.477866a335.325867 335.325867 0 0 1-201.591466 77.2096v123.221333C772.7104 964.9152 972.117333 761.378133 972.117333 512M1024 512c0 282.282667-229.717333 512-512 512S0 794.282667 0 512 229.717333 0 512 0s512 229.717333 512 512m-510.737067-83.797333c22.152533 0 42.359467 8.0896 57.9584 21.435733 27.477333-54.613333 45.499733-133.290667 45.499734-169.130667a104.721067 104.721067 0 1 0-209.442134 0c0 36.181333 18.363733 116.053333 46.2848 170.734934a88.746667 88.746667 0 0 1 59.6992-23.04m-27.511466 174.08c-33.3824 51.541333-93.320533 107.3152-124.654934 125.405866a104.7552 104.7552 0 0 1-104.721066-181.384533c31.061333-17.92 108.168533-41.642667 169.233066-45.1584a89.224533 89.224533 0 0 0 60.177067 101.137067" fill="#2e8efd" p-id="37857"></path></svg>