<?xml version="1.0" standalone="no"?><!DOCTYPE svg PUBLIC "-//W3C//DTD SVG 1.1//EN" "http://www.w3.org/Graphics/SVG/1.1/DTD/svg11.dtd"><svg t="1733844421929" class="icon" viewBox="0 0 1024 1024" version="1.1" xmlns="http://www.w3.org/2000/svg" p-id="40422" xmlns:xlink="http://www.w3.org/1999/xlink" width="200" height="200"><path d="M512 64C264.6 64 64 264.6 64 512s200.6 448 448 448 448-200.6 448-448S759.4 64 512 64z m265.9 713.9c-34.6 34.6-74.8 61.7-119.5 80.6C612 878.1 562.8 888 512 888c-50.8 0-100-9.9-146.3-29.5-44.8-18.9-85-46.1-119.5-80.6s-61.7-74.8-80.6-119.5C145.9 612 136 562.8 136 512s9.9-100 29.5-146.3c18.9-44.8 46.1-85 80.6-119.5s74.8-61.7 119.5-80.6C412 145.9 461.2 136 512 136c50.8 0 100 9.9 146.3 29.5 44.8 18.9 85 46.1 119.5 80.6s61.7 74.8 80.6 119.5C878.1 412 888 461.2 888 512s-9.9 100-29.5 146.3c-19 44.8-46.1 85-80.6 119.6z" fill="#eeb173" p-id="40423"></path><path d="M347.5 521.9l-70.1-103h-53.7v186.2h54.1V502.9l69.7 102.2h54.2V418.9h-54.2zM560.5 484.1h-62.8v-65.2h-57.6v186.2h57.6v-75.3h62.8v75.3h57.8V418.9h-57.8zM780.8 508.7c-3.8-2.4-9.3-4.4-16.5-6.2 8.9-4.9 15.5-10.6 19.9-17.1 4.4-6.5 6.6-13.8 6.6-21.8 0-13.7-5.4-25.1-16.2-34.2-10.8-9.1-28.4-13.6-52.7-13.6-21.2 0-37.5 4.1-49.1 12.4-11.6 8.3-19.4 20.2-23.4 35.8l48.9 8.8c1.4-9.2 3.9-15.7 7.7-19.4s8.8-5.5 14.9-5.5c5.9 0 10.6 1.7 14 5.1 3.4 3.4 5.1 7.9 5.1 13.6 0 5.9-2.3 11-6.8 15.4-4.5 4.3-10.2 6.5-16.9 6.5-1.6 0-3.9-0.2-6.7-0.6l-2.7 36.9c7.1-2 12.7-3 16.8-3 7.6 0 13.6 2.4 18.1 7.1 4.4 4.7 6.7 11.4 6.7 20.1 0 8.5-2.3 15.2-6.9 20.3-4.6 5.1-10.4 7.6-17.3 7.6-6.6 0-12-2-16.3-6-4.3-4-7.4-11.2-9.5-21.6l-51.7 6.9c3.4 11.6 8.2 21.2 14.5 28.9 6.3 7.7 14.3 13.5 24.1 17.5s23.1 6 40.1 6c17.3 0 31.4-2.7 42-8.1s18.8-13 24.5-23c5.7-9.9 8.5-20.3 8.5-31.2 0-8.6-1.7-16.1-5.1-22.3s-8.5-11.5-14.6-15.3z" p-id="40424"></path></svg>