<?xml version="1.0" standalone="no"?><!DOCTYPE svg PUBLIC "-//W3C//DTD SVG 1.1//EN" "http://www.w3.org/Graphics/SVG/1.1/DTD/svg11.dtd"><svg t="1733844074840" class="icon" viewBox="0 0 1024 1024" version="1.1" xmlns="http://www.w3.org/2000/svg" p-id="21632" xmlns:xlink="http://www.w3.org/1999/xlink" width="200" height="200"><path d="M843.52 122.88v669.44H180.48V124.16H96v776.96h833.28V122.88h-85.76z" p-id="21633"></path><path d="M509.44 584.96l163.84 51.2 119.04-55.04-29.44-64-93.44 43.52-158.72-49.92-161.28 49.92-85.76-39.68-29.44 64 111.36 51.2 163.84-51.2z m0 188.16l163.84 51.2 119.04-55.04-29.44-64-93.44 43.52-158.72-49.92-161.28 49.92-85.76-39.68-29.44 64 111.36 51.2 163.84-51.2zM360.96 369.92H384c28.16 0 52.48-7.68 69.12-20.48 19.2-15.36 30.72-38.4 30.72-66.56 0-29.44-10.24-51.2-30.72-65.28-16.64-11.52-40.96-17.92-70.4-17.92h-89.6v250.88h67.84v-80.64z m0-115.2h19.2c26.88 0 38.4 7.68 38.4 28.16 0 21.76-11.52 32-37.12 32h-20.48v-60.16z m222.72 96H652.8v98.56h66.56V199.68H652.8v92.16h-69.12v-92.16h-67.84v249.6h67.84v-98.56z" p-id="21634"></path></svg>