<?xml version="1.0" standalone="no"?><!DOCTYPE svg PUBLIC "-//W3C//DTD SVG 1.1//EN" "http://www.w3.org/Graphics/SVG/1.1/DTD/svg11.dtd"><svg t="1733843745875" class="icon" viewBox="0 0 1024 1024" version="1.1" xmlns="http://www.w3.org/2000/svg" p-id="15860" xmlns:xlink="http://www.w3.org/1999/xlink" fill="#eeb173" width="200" height="200"><path d="M307.31392 942.60352h-25.66912V717.12512H262.4768v-46.22976h19.168v-300.48H262.4768v-46.23104h19.168v-30.5152l25.66656-47.71712v78.23232h19.17056v46.23104h-19.17056l0.00256 300.48h19.168v7.11296c0 13.86624 2.78784 27.07968 7.82848 39.1168h-26.99648v225.4784zM374.4896 64.60544h272.03456v30.22208h-26.67008v40.672h-20.00256V94.82752h-29.67424v40.672h-20.00128V94.82752h-29.66784v22.34112h-20.00128V94.82752h-29.66912v40.672h-20.00384V94.82752h-29.6704v40.672h-20.00384V94.82752H374.4896V64.60544z m320.04224 259.57888h15.16288v-30.5152l25.67168-47.71712v78.23232h24.94592v46.22848h-24.94592v300.48256h24.94592v46.22976h-24.94592v225.4784h-25.67168V717.12512h-22.99392c5.04064-12.03712 7.82848-25.25056 7.82848-39.1168l0.00256 0.00384v-7.1168h15.16288V370.4128h-15.16288v-46.22848zM317.98016 960.60544h-47.00288l10.66752-18.00192h25.66912l10.66624 18.00192z m428.05504 0h-47.008l10.66752-18.00192h25.67168l10.6688 18.00192z m-438.72128-90.07104h402.3808v19.44704l-402.3808 0.00256v-19.4496z" p-id="15861"></path><path d="M699.22432 690.33984c-2.82368 24.54656-13.9776 46.5664-30.56256 63.1488-17.1392 17.14176-40.08448 28.48256-65.63328 30.81984v52.01536H412.20224v-52.70272c-23.21792-3.40864-44.01536-14.29376-59.8528-30.13248-19.31904-19.31776-31.26912-46.0096-31.26912-75.48032v-464.0512c0-29.47584 11.95008-56.16512 31.26912-75.48032 19.3152-19.31904 46.00448-31.26912 75.48032-31.26912l165.35552 0.02304c29.47456-0.02048 56.16384 11.9296 75.4816 31.24608 19.31648 19.31776 31.26784 46.00704 31.26784 75.48288v477.08928l-0.7104-0.70912z m-38.19776 55.5136c17.35936-17.35552 28.09984-41.34912 28.09984-67.84512v-5.26848H331.8848v5.26848c0 26.496 10.74048 50.48704 28.09984 67.84512 17.35936 17.35936 41.34912 28.09984 67.84512 28.09984h165.35168c26.49984 0 50.4896-10.74048 67.84512-28.09984z m-68.80256 38.90432h-169.216v40.76032h169.216v-40.76032z m-260.3392-570.80064v447.97824h357.24416V213.95968c0-26.496-10.74048-50.4896-28.09728-67.84768-17.35808-17.3568-41.3504-28.09728-67.8464-28.09728l-165.35552-0.02432c-26.49856 0.02176-50.4896 10.76224-67.84512 28.1216-17.35936 17.35552-28.09984 41.34656-28.09984 67.84512z" p-id="15862"></path><path d="M499.89888 609.3632h21.792V122.8288h-21.792v486.5344z m27.45216 11.31904h-38.7712V111.50976h44.43008v509.17248h-5.65888z" p-id="15863"></path><path d="M619.69152 631.008c-3.27424 2.15808-10.76736 3.91936-20.72192 5.07136-9.50912 1.09952-21.51808 1.74848-34.34496 1.74848l-8.6656-0.1152c-13.32992-0.31104-24.89856-1.29408-33.12768-2.68032-10.304-1.73952-16.43776-4.92032-16.43776-9.21728 0-1.18656 0.3776-2.2976 1.12768-3.32288 2.15168-2.944 9.71776-5.2544 20.45824-6.64704 9.85216-1.27232 22.74816-2.04288 36.64512-2.04288l2.73024 0.02688c14.57536 0.1024 27.58016 1.0176 36.93184 2.42304 11.39456 1.71264 18.4192 4.98176 18.55616 9.41312l0.04224 1.45024-2.53568 3.45728-0.65792 0.4352z m-21.68576-3.3728c5.30176-0.61312 9.66784-1.33248 12.7552-2.11968-1.92-0.14208-4.544-0.3776-7.7376-0.8576-9.08928-1.36448-21.664-2.25408-35.70048-2.35264l-2.69824-0.01152c-13.71264 0.01664-26.21952 0.74752-35.57888 1.95712-4.61312 0.59776-8.34048 1.216-10.89408 1.81504 1.5424 0.04608 3.59552 0.17152 6.07744 0.59264 7.91296 1.33248 19.05024 2.28096 31.87968 2.57792l4.32384 0.07424 4.192 0.00896c12.55296 0 24.22016-0.62464 33.38112-1.68448z" p-id="15864"></path><path d="M507.15648 631.008c-3.27168 2.15808-10.76736 3.91936-20.71808 5.07136-9.50912 1.09952-21.51936 1.74848-34.34624 1.74848l-8.6656-0.1152c-13.33248-0.31104-24.89984-1.29408-33.13024-2.68032-10.30144-1.73952-16.43776-4.92288-16.43776-9.21728 0-1.18656 0.3776-2.2976 1.12768-3.32288 2.15808-2.944 9.71776-5.25824 20.4608-6.64704 9.85216-1.27232 22.74816-2.04288 36.64512-2.04288l2.73152 0.02688c14.57408 0.1024 27.58016 1.0176 36.93056 2.42304 11.39456 1.71264 18.4192 4.98176 18.55616 9.41312l0.0448 1.4528-2.53696 3.45472-0.66176 0.4352z m-21.68192-3.3728c5.30048-0.61312 9.66912-1.33248 12.75648-2.11968-1.92-0.14208-4.54656-0.3776-7.74016-0.8576-9.088-1.36448-21.66272-2.25408-35.6992-2.35264l-2.69952-0.01152c-13.71264 0.01664-26.21952 0.74752-35.57888 1.95712-4.61824 0.59776-8.34816 1.216-10.90432 1.81504 1.54496 0.04608 3.60064 0.17152 6.08512 0.59264 7.9168 1.33248 19.05408 2.28096 31.88224 2.57792l4.32384 0.07424 4.192 0.00896c12.55424 0 24.22016-0.62464 33.3824-1.68448zM361.44128 698.98496c-0.25984 1.64864-0.29696 3.36-0.1152 5.0624 0.1792 1.66784 0.58624 3.33056 1.20192 4.90752a19.219712 19.219712 0 0 0 2.45248 4.4224 19.237504 19.237504 0 0 0 3.52256 3.61344c1.34912 1.06112 2.81984 1.93024 4.34048 2.5728 1.54752 0.65408 3.19616 1.11104 4.88064 1.33888 1.68064 0.22528 3.39456 0.22528 5.06752 0.00512 1.65376-0.21376 3.30624-0.66304 4.88832-1.3248 3.56864-1.49376 6.92096-4.20608 10.25024-6.89408l2.34624-1.88928c2.4064-1.89568 5.00352-3.7568 7.8592-5.26976 3.04128-1.60896 6.32704-2.78656 9.90592-3.13984 2.18752-0.21632 4.36096-0.11264 6.46528 0.24064 2.26816 0.38016 4.45184 1.0368 6.5024 1.8688 1.8688 0.75776 3.68128 1.6896 5.44 2.70976 1.73568 1.00352 3.31264 2.0288 4.82176 3.05152 0.47744 0.47744 1.71136 1.0368 2.18752 1.51296 4.70912 3.2448 9.50912 6.55104 14.53184 7.49056 1.5744 0.2944 3.22816 0.3584 4.896 0.2496 1.94688-0.12672 3.8848-0.4928 5.76512-1.01504 1.89696-0.5248 3.77088-1.21088 5.62176-1.97632 1.84192-0.76032 3.80672-1.67808 5.7792-2.6176l1.31712-0.6208c3.65696-1.74592 7.32288-3.49952 11.34336-4.89728 2.40128-0.832 4.82944-1.51296 7.22048-1.9328 2.53312-0.4416 5.14304-0.63744 7.79904-0.48768 4.05888 0.23296 7.8656 1.248 11.5008 2.6432 3.3728 1.2928 6.6368 2.93888 9.83552 4.55936 2.87872 1.4592 5.82016 2.93376 8.832 4.07936 2.73152 1.03936 5.4912 1.7856 8.23808 1.93024 6.656 0.3456 13.63968-2.79424 20.34048-5.81504l0.50688-0.22656c1.87904-0.84608 3.79008-1.69472 5.8304-2.5088 2.07488-0.83072 4.18432-1.58208 6.32576-2.1824 2.25536-0.6208 4.57344-1.0944 6.9376-1.33248 2.4256-0.24192 4.89088-0.23936 7.33824 0.09856 3.10784 0.42624 6.04416 1.3632 8.85504 2.55104 2.72896 1.15456 5.17504 2.46016 7.5392 3.75936l0.82432 0.4544c4 2.20416 8.05376 4.43904 12.04224 5.32736 2.8032 0.6272 5.74848 0.64256 8.65024 0.17152 3.18336-0.51584 6.34496-1.6384 9.26848-3.19104 2.93632-1.56032 5.6192-3.50208 8.06912-5.6704 2.55104-2.25664 4.92032-4.80768 7.1232-7.488a88.133248 88.133248 0 0 0 4.18176-5.49888c1.25568-1.79584 2.5088-3.74528 3.74016-5.83552l9.28512 5.48736c-1.25568 2.12608-2.66112 4.30208-4.20608 6.51136-1.50016 2.14144-3.0656 4.20608-4.6848 6.17344-2.52544 3.07072-5.28256 6.03392-8.30848 8.70912-3.1232 2.7648-6.49728 5.21472-10.13504 7.14752-3.88992 2.0672-8.1792 3.5712-12.60416 4.28928-4.18176 0.67712-8.49152 0.64-12.6976-0.29952-5.59872-1.248-10.28864-3.8336-14.912-6.38336l-0.82432-0.4544c-2.20928-1.21344-4.4416-2.41024-6.52672-3.29344-2.0032-0.84608-4.04864-1.50656-6.11584-1.79072-1.5872-0.21632-3.22304-0.21632-4.84736-0.05632-1.68704 0.17152-3.39712 0.52224-5.0816 0.99072-1.77792 0.50304-3.52384 1.1264-5.22624 1.80736-1.7472 0.69888-3.57888 1.51168-5.41312 2.33728l-0.5056 0.22656c-7.86304 3.54304-16.05504 7.22944-25.31584 6.74688-4.064-0.2112-7.88096-1.21856-11.53024-2.6048-3.36768-1.28256-6.63936-2.92352-9.84448-4.54528-2.88256-1.4592-5.82272-2.94272-8.82304-4.09344-2.7392-1.0496-5.504-1.81248-8.25088-1.96864-1.74592-0.09856-3.54816 0.04352-5.35168 0.35968-1.952 0.34176-3.81824 0.85632-5.57696 1.46688-3.3728 1.16992-6.78912 2.80576-10.20288 4.4352l-1.35936 0.6592c-2.00576 0.9536-4.05888 1.91104-6.28864 2.83264-2.22208 0.91776-4.50304 1.75104-6.84288 2.39872-2.56768 0.71424-5.24032 1.21472-7.9168 1.39136-2.50624 0.16896-5.05728 0.05632-7.59552-0.41728-7.24352-1.3568-13.00224-5.31712-18.64576-9.20448l-2.12352-1.44768c-1.42976-0.95872-2.85056-1.89056-4.192-2.66624-1.312-0.76032-2.6752-1.4592-4.09088-2.0352-1.39264-0.56448-2.8224-1.00352-4.22144-1.23648-1.2288-0.20608-2.4576-0.27264-3.63904-0.15488-2.01856 0.19712-4.01024 0.93696-5.93792 1.95712-2.11456 1.11872-4.2112 2.63424-6.21568 4.21376l-2.26048 1.80352c-3.92704 3.17056-7.87584 6.36672-12.86912 8.45696-2.41408 1.00992-4.98944 1.69728-7.63008 2.04288-2.6176 0.3456-5.28128 0.3456-7.89504-0.00512-2.61248-0.35328-5.18784-1.07008-7.62112-2.0992-2.46912-1.0432-4.77952-2.39616-6.83008-4.00768-2.0608-1.6192-3.91936-3.54432-5.50912-5.68064-1.58208-2.12864-2.88384-4.46336-3.84512-6.912-0.96-2.4576-1.59232-5.05728-1.87648-7.69152-0.28032-2.59968-0.21376-5.26592 0.20096-7.88992l10.63424 1.68704z" fill="#eeb173" p-id="15865"></path></svg>