<?xml version="1.0" standalone="no"?><!DOCTYPE svg PUBLIC "-//W3C//DTD SVG 1.1//EN" "http://www.w3.org/Graphics/SVG/1.1/DTD/svg11.dtd"><svg t="1733844160470" class="icon" viewBox="0 0 1024 1024" version="1.1" xmlns="http://www.w3.org/2000/svg" p-id="25378" xmlns:xlink="http://www.w3.org/1999/xlink" width="200" height="200"><path d="M630.784 787.968c-22.016 0-43.52-8.192-59.392-23.04-16.384 14.848-37.376 23.04-59.392 23.04s-43.008-8.192-59.392-23.04c-16.384 14.848-37.376 23.04-59.392 23.04-36.352 0-68.608-22.016-81.92-55.808-2.56-6.144-2.048-12.288 0.512-18.432 2.56-5.632 7.168-10.24 13.312-12.8 2.56-1.024 5.632-1.536 8.704-1.536 9.728 0 18.944 6.144 22.528 15.36 6.144 15.36 20.48 25.6 37.376 25.6 16.384 0 31.232-9.728 37.376-25.088 3.584-9.216 12.288-14.848 22.016-14.848 3.072 0 6.144 0.512 8.704 1.536 6.656 2.56 11.776 8.192 13.824 14.848 6.656 14.336 20.992 23.552 36.352 23.552 16.384 0 30.72-9.728 36.864-24.576 0.512-1.536 1.536-3.584 3.072-5.12 2.56-4.096 6.144-6.656 10.752-8.704 3.072-1.024 6.144-1.536 9.216-1.536 9.728 0 18.432 5.632 22.016 14.848 6.144 15.36 20.992 25.088 37.376 25.088s30.72-9.728 36.864-24.576c3.584-8.704 12.288-14.848 22.016-14.848 3.072 0 6.144 0.512 9.216 2.048 6.144 2.56 10.24 7.168 12.8 13.312 2.56 6.144 2.56 12.288 0 18.432-14.336 31.744-46.08 53.248-81.408 53.248z" p-id="25379"></path><path d="M95.744 930.304c-17.92 0-31.744-13.824-31.744-31.744 0-17.408 13.824-31.744 31.744-31.744h198.144c-122.88-75.776-198.656-210.944-198.656-355.328 0-229.888 186.88-417.28 416.768-417.28 2.56-0.512 4.608-1.024 7.168-1.024h409.088c17.408 0 31.744 13.824 31.744 31.744s-13.824 31.744-31.744 31.744h-196.608c122.368 75.776 198.144 210.944 198.144 355.328 0 230.4-187.392 417.28-417.28 417.28h-0.512c-2.048 0.512-4.608 1.024-7.168 1.024H95.744z m416.768-772.608c-195.584 0-354.304 159.232-354.304 354.304 0 195.584 159.232 354.304 354.304 354.304s354.304-159.232 354.304-354.304c0.512-195.584-158.72-354.304-354.304-354.304z" p-id="25380"></path><path d="M753.152 410.624l-45.056-31.232c-35.328-24.576-81.408-25.088-117.248-1.024l-29.696 19.968c-8.192-3.584-16.896-6.144-26.112-8.192-19.968-3.584-39.424-2.56-57.344 3.072l-4.096-14.848c-4.096-15.872 1.536-33.28 14.848-43.52l43.52-33.28c14.336-10.24 16.384-30.72 6.144-44.544-10.24-14.336-30.72-16.384-44.544-6.144l-43.52 33.28c-33.792 26.112-49.152 69.12-37.888 111.104l9.216 34.304c-14.848 15.872-25.088 36.352-29.184 58.88-1.536 6.656-2.048 13.312-2.56 19.968l-15.872-1.024c-16.896-1.024-31.232-11.264-36.864-27.136l-17.92-51.2c-5.632-16.384-24.064-25.6-40.448-19.456-16.384 5.632-25.6 24.064-19.456 40.448l18.432 51.2c14.336 40.448 51.2 68.096 93.696 69.632l35.84 1.536c1.536 2.56 3.072 4.608 4.608 7.168 14.848 22.016 36.352 38.4 60.928 46.592l-5.632 15.36c-1.024 3.584-3.072 7.168-5.632 10.24-2.048 2.56-4.608 4.608-7.168 7.168-1.024 1.024-1.536 3.072 0 4.096 1.536 1.024 4.096 1.536 6.144 1.536 5.12 0.512 9.728 1.536 14.336 3.584 10.24 4.096 17.408 10.752 24.064 18.944 4.608 5.632 13.312 4.608 16.896-1.536 1.024-1.536 1.536-2.56 2.56-4.096 6.144-10.24 9.728-20.992 13.824-32.256 1.536-4.608 3.072-8.704 5.12-13.312 0-0.512 1.536-6.144 2.56-6.144l6.144-1.536h0.512c10.24-3.072 20.48-7.168 29.696-12.8 1.024-0.512 2.048-1.024 3.072-2.048 1.024-0.512 2.048-1.024 2.56-1.536 5.12-3.072 9.728-7.168 14.336-11.264 1.536-1.536 3.072-2.56 4.096-4.096 3.584-3.584 6.656-7.168 9.728-11.264l12.288 9.728c12.8 10.24 18.432 28.16 13.824 43.52-2.56 8.704-5.632 17.408-8.192 26.624-1.536 4.608-3.072 9.216-4.096 13.824-1.024 3.584-3.072 6.656-2.56 10.24 0.512 3.072 2.048 6.144 3.584 8.704 1.024 2.048 2.56 5.12 5.12 6.144 4.608 1.536 5.632-4.096 7.168-6.656l4.608-7.68c3.584-5.12 8.192-9.728 13.312-13.312 5.632-4.096 11.776-7.168 18.432-9.216 3.072-1.024 6.656-1.536 10.24-2.048 2.56-0.512 5.12 0.512 7.68 0 1.024 0 2.56-0.512 3.072-1.536 0.512-0.512 1.536-4.096 1.536-4.096l0.512-1.536 0.512-1.024c0.512-2.56 1.024-4.608 1.536-7.168 0-0.512 0.512-1.536 0.512-2.048 0-0.512 0-1.024 0.512-2.048 7.68-37.888-6.656-77.312-37.888-101.888l-27.648-22.016c3.072-29.696-5.12-58.368-20.992-81.408l13.824-9.216c14.336-9.216 32.256-9.216 45.568 0.512l45.056 31.232c12.288 8.704 28.672 7.168 39.424-3.072 2.048-1.536 3.072-3.072 4.608-5.12 9.728-14.336 6.144-33.28-8.192-44.032zM570.88 522.24c-3.072 15.36-11.776 28.672-24.576 37.376-12.8 9.216-28.672 11.776-44.032 9.216-15.36-3.072-28.672-11.776-37.376-24.576-8.704-12.8-12.8-27.648-9.728-43.52 2.56-12.8 9.216-24.064 17.92-32.256 13.312-12.288 31.744-17.92 51.2-14.848 31.744 6.144 52.736 36.864 46.592 68.608z" p-id="25381"></path></svg>